<svg xmlns="http://www.w3.org/2000/svg" width="32" height="32" viewBox="0 0 32 32" role="img" aria-label="A favicon">
  <!-- Background -->
  <rect x="0" y="0" width="32" height="32" rx="8" fill="#000000"/>

  <!-- Warm monogram A -->
  <path
    d="M16 7
       C15.4 7 14.9 7.4 14.6 8.0
       L7.8 24.6
       C7.5 25.3 8.0 26 8.8 26
       H11.2
       C11.7 26 12.2 25.7 12.4 25.2
       L13.8 21.8
       H18.2
       L19.6 25.2
       C19.8 25.7 20.3 26 20.8 26
       H23.2
       C24.0 26 24.5 25.3 24.2 24.6
       L17.4 8.0
       C17.1 7.4 16.6 7 16 7
       Z

       M16 12.6
       L14.7 16.9
       H17.3
       L16 12.6
       Z"
    fill="#FFFFFF"
  />
</svg>
